<svg xmlns="http://www.w3.org/2000/svg" version="1.1" xmlns:xlink="http://www.w3.org/1999/xlink" width="600" height="600"><svg width="600" height="600" viewBox="0 0 3 3" version="1.1" id="SvgjsSvg1021" sodipodi:docname="logo.svg" xml:space="preserve" inkscape:version="1.4 (e7c3feb1, 2024-10-09)" xmlns:inkscape="http://www.inkscape.org/namespaces/inkscape" xmlns:sodipodi="http://sodipodi.sourceforge.net/DTD/sodipodi-0.dtd" xmlns="http://www.w3.org/2000/svg" xmlns:svg="http://www.w3.org/2000/svg"><defs id="SvgjsDefs1020">
	
</defs><sodipodi:namedview id="SvgjsSodipodi:namedview1019" pagecolor="#ffffff" bordercolor="#000000" borderopacity="0.25" inkscape:showpageshadow="2" inkscape:pageopacity="0.0" inkscape:pagecheckerboard="0" inkscape:deskcolor="#d1d1d1" inkscape:zoom="0.94833333" inkscape:cx="299.47276" inkscape:cy="300" inkscape:window-width="1560" inkscape:window-height="788" inkscape:window-x="0" inkscape:window-y="39" inkscape:window-maximized="0" inkscape:current-layer="svg1"></sodipodi:namedview><desc id="SvgjsDesc1018">Flag of Germany</desc><rect id="SvgjsRect1017" width="3" height="3" y="0" x="0" fill="#000"></rect><rect id="SvgjsRect1016" width="3" height="2" y="1" x="0" fill="#D00"></rect><rect id="SvgjsRect1015" width="3" height="1" y="2" x="0" fill="#FFCE00"></rect><g id="SvgjsG1014" style="fill:#ffffff;fill-opacity:1" transform="matrix(0.0401609,0,0,0.0401609,0.28060349,0.28060738)">
	<g id="SvgjsG1013" style="fill:#ffffff;fill-opacity:1">
		<circle style="fill:#ffffff;fill-opacity:1" cx="19.969" cy="6.0079999" r="6.0079999" id="SvgjsCircle1012"></circle>
		<path style="fill:#ffffff;fill-opacity:1" d="m 53.99,37.782 c -6.299,3.684 -10.077,-1.721 -12.923,-6.924 -0.124,-0.501 -0.307,-1.009 -0.57,-1.522 -2.203,-4.285 -4.502,-8.527 -6.908,-12.703 4.699,-1.499 8.996,-0.13 12.375,4.602 2.748,3.85 9.176,0.158 6.396,-3.737 C 45.82,8.339 36.068,6.066 26.305,11.862 c -0.406,0.241 -0.732,0.521 -0.993,0.828 -0.148,0.058 -0.295,0.122 -0.44,0.19 -0.397,0.08 -0.806,0.233 -1.219,0.478 -6.069,3.603 -11.709,2.92 -15.921,-2.98 -2.75,-3.85 -9.176,-0.158 -6.395,3.737 5.374,7.527 12.919,10.392 20.857,7.96 2.491,4.278 4.856,8.632 7.128,13.032 -3.358,1.717 -6.467,3.853 -9.357,6.368 -0.125,0.109 -0.236,0.222 -0.341,0.335 -0.629,0.323 -1.184,0.868 -1.575,1.676 -1.942,4.015 -3.886,8.028 -5.828,12.043 -2.086,4.312 4.626,7.438 6.704,3.146 1.846,-3.814 3.694,-7.633 5.541,-11.445 0.25,-0.141 0.498,-0.309 0.736,-0.518 3.352,-2.918 7.191,-5.283 11.396,-6.748 0.207,-0.072 0.396,-0.158 0.574,-0.254 5.148,6.533 12.33,10.131 20.93,5.105 4.531,-2.648 0.433,-9.689 -4.112,-7.033 z" id="SvgjsPath1011"></path>
	</g>
</g></svg><style>@media (prefers-color-scheme: light) { :root { filter: none; } }
@media (prefers-color-scheme: dark) { :root { filter: none; } }
</style></svg>